# xmcd
#
# Track frame offsets:
#	150
#	8930
#	20107
#	29283
#	39687
#	52689
#	62789
#	73025
#	82341
#	91268
#	102091
#	113087
#	125838
#	136757
#	148128
#	157029
#	167242
#	177669
#	186312
#	196409
#	207108
#	218490
#	228852
#	237731
#	246472
#
# Disc length: 3408 seconds
#
# Revision: 0
# Processed by: cddbd v1.5.2PL0 Copyright (c) Steve Scherf et al.
# Submitted via: audiograbber 1.83.01
#
DISCID=750d4e19
DTITLE=Verschiedene - Real Raw Rockabilly [CD 2)
DYEAR=2010
DGENRE=Rockabilly
TTITLE0=Ronnie Dawson - Rockin' Bones
TTITLE1=Billy Brown - Flip out
TTITLE2=Eddie Bond and The Stompers - Rockin' Daddy
TTITLE3=Ray Harris - Come on little Mama
TTITLE4=Warren Smith - Rock 'n' Roll Ruby
TTITLE5=Tommy Spurlin and The Southern Boys - Hang Loose
TTITLE6=Johnny Burnette - The Train kept a 'Rollin' 
TTITLE7=Mac Curtis - Grandaddy' s Rockin'
TTITLE8=Joe Clay - Sixteen Chicks
TTITLE9=Don Woody - Bird Dog
TTITLE10=Elvis Presley - Mystery Train
TTITLE11=Carl Perkins - Boppin' the Blues
TTITLE12=Peanuts Wilson - Cast iron Arm
TTITLE13=Billy Lee Riley - Red Hot
TTITLE14=Janis and Her Boyfriends - Bang Bang
TTITLE15=Werly Fairburn - I' m jealous
TTITLE16=Charlie Feathers - Bottle to the Baby
TTITLE17=Johnny  Burnette - Tear it up
TTITLE18=George ''Thumper'' Jones - Rock it
TTITLE19=Johnny Kidd and The Pirates - Growl
TTITLE20=Jimmy Lloyd - Rio de Rosa
TTITLE21=Jeff Daniels - Daddy-O-Rock
TTITLE22=Curtis Gordon - Mobile Alabama
TTITLE23=Art Adams - Dancing Doll
TTITLE24=Johnny Carroll and His Hot Rocks - Wild wild Women
EXTD=
EXTT0=
EXTT1=
EXTT2=
EXTT3=
EXTT4=
EXTT5=
EXTT6=
EXTT7=
EXTT8=
EXTT9=
EXTT10=
EXTT11=
EXTT12=
EXTT13=
EXTT14=
EXTT15=
EXTT16=
EXTT17=
EXTT18=
EXTT19=
EXTT20=
EXTT21=
EXTT22=
EXTT23=
EXTT24=
PLAYORDER=
